<svg width="128" height="128" viewBox="0 0 128 128" xmlns="http://www.w3.org/2000/svg">
  <defs>
    <linearGradient id="gp-bg" x1="12%" y1="12%" x2="88%" y2="88%">
      <stop offset="0%" stop-color="#8f9bff" />
      <stop offset="50%" stop-color="#7c4dff" />
      <stop offset="100%" stop-color="#ff7ad6" />
    </linearGradient>
    <linearGradient id="gp-shine" x1="0%" y1="0%" x2="100%" y2="100%">
      <stop offset="0%" stop-color="#ffffff" stop-opacity="0.7" />
      <stop offset="100%" stop-color="#ffffff" stop-opacity="0" />
    </linearGradient>
    <linearGradient id="gp-inner" x1="20%" y1="15%" x2="85%" y2="85%">
      <stop offset="0%" stop-color="#100935" />
      <stop offset="100%" stop-color="#321256" />
    </linearGradient>
  </defs>
  <rect x="4" y="4" width="120" height="120" rx="36" fill="url(#gp-inner)" stroke="url(#gp-bg)" stroke-width="8" />
  <circle cx="48" cy="64" r="22" fill="none" stroke="#f1e7ff" stroke-width="10" stroke-linecap="round" />
  <path d="M80 42c12.5 0 22 9.5 22 22s-9.5 22-22 22c-7.2 0-12.6-3.1-17.4-8.3" fill="none" stroke="#f1e7ff" stroke-width="10" stroke-linecap="round" />
  <path d="M62 89c6.2 6.4 13.8 11 24 11 15.5 0 28-12.5 28-28s-12.5-28-28-28" fill="none" stroke="url(#gp-bg)" stroke-width="6" stroke-linecap="round" />
  <path d="M35 35l18-18" stroke="url(#gp-shine)" stroke-width="6" stroke-linecap="round" />
  <path d="M20 54l8-8" stroke="url(#gp-shine)" stroke-width="6" stroke-linecap="round" />
</svg>
