<svg width="640" height="900" viewBox="0 0 640 900" xmlns="http://www.w3.org/2000/svg" role="img" aria-labelledby="title desc">
  <title id="title">Travel 002 Observation Deck</title>
  <desc id="desc">A stylised illustration placeholder of an observation deck overlooking Tokyo.</desc>
  <defs>
    <linearGradient id="sky" x1="0" y1="0" x2="1" y2="1">
      <stop offset="0%" stop-color="#37164c" />
      <stop offset="100%" stop-color="#111638" />
    </linearGradient>
    <radialGradient id="glow" cx="0.75" cy="0.2" r="0.5">
      <stop offset="0%" stop-color="rgba(255, 102, 196, 0.6)" />
      <stop offset="100%" stop-color="rgba(17, 22, 56, 0)" />
    </radialGradient>
  </defs>
  <rect width="640" height="900" fill="url(#sky)" />
  <rect width="640" height="900" fill="url(#glow)" />
  <g stroke="rgba(255,255,255,0.25)" stroke-width="1.2" fill="none">
    <path d="M120 680 L520 680" />
    <path d="M120 710 L520 710" />
    <path d="M200 360 L200 710" />
    <path d="M440 360 L440 710" />
  </g>
  <g fill="rgba(255,255,255,0.14)">
    <rect x="160" y="420" width="80" height="190" rx="18" />
    <rect x="280" y="360" width="90" height="250" rx="22" />
    <rect x="410" y="400" width="70" height="210" rx="18" />
  </g>
  <g fill="#f4edff" font-family="'Noto Sans JP', 'Segoe UI', sans-serif" text-anchor="middle">
    <text x="320" y="620" font-size="34" font-weight="600">OBSERVATION DECK</text>
    <text x="320" y="662" font-size="22" opacity="0.75">Tokyo Night Pulse</text>
    <text x="320" y="702" font-size="20" opacity="0.6">Secret Valentine Mission</text>
  </g>
  <g fill="#ffceeb" opacity="0.8">
    <circle cx="160" cy="260" r="6" />
    <circle cx="220" cy="220" r="4" />
    <circle cx="320" cy="200" r="8" />
    <circle cx="420" cy="240" r="5" />
    <circle cx="480" cy="210" r="7" />
  </g>
</svg>
