<svg width="640" height="360" viewBox="0 0 640 360" fill="none" xmlns="http://www.w3.org/2000/svg">
  <defs>
    <linearGradient id="walk-bg" x1="0" y1="0" x2="640" y2="360" gradientUnits="userSpaceOnUse">
      <stop offset="0" stop-color="#111a3c" />
      <stop offset="1" stop-color="#0a1028" />
    </linearGradient>
    <linearGradient id="walk-route" x1="120" y1="72" x2="520" y2="280" gradientUnits="userSpaceOnUse">
      <stop offset="0" stop-color="#5d9dff" />
      <stop offset="1" stop-color="#ff66c4" />
    </linearGradient>
    <filter id="walk-glow" x="-50%" y="-50%" width="200%" height="200%">
      <feGaussianBlur stdDeviation="8" result="coloredBlur" />
      <feMerge>
        <feMergeNode in="coloredBlur" />
        <feMergeNode in="SourceGraphic" />
      </feMerge>
    </filter>
  </defs>
  <rect width="640" height="360" rx="24" fill="url(#walk-bg)" />
  <g opacity="0.25" stroke="#3a4a7a" stroke-width="6" stroke-linecap="round">
    <path d="M48 72L592 72" />
    <path d="M80 120L560 120" />
    <path d="M112 168L520 168" />
    <path d="M152 216L488 216" />
    <path d="M192 264L456 264" />
    <path d="M232 312L424 312" />
    <path d="M88 40L120 328" />
    <path d="M184 40L216 328" />
    <path d="M280 40L312 328" />
    <path d="M376 40L408 328" />
    <path d="M472 40L504 328" />
  </g>
  <g stroke="#1b2f5e" stroke-width="12" stroke-linecap="round" opacity="0.4">
    <path d="M140 78C140 78 220 128 260 152C300 176 360 208 408 240C456 272 500 298 500 298" />
  </g>
  <path d="M132 82C132 82 214 132 254 156C294 180 356 214 404 246C452 278 502 306 502 306" stroke="url(#walk-route)" stroke-width="8" stroke-linecap="round" filter="url(#walk-glow)" />
  <circle cx="132" cy="82" r="10" fill="#5d9dff" stroke="#b9cdff" stroke-width="3" />
  <circle cx="502" cy="306" r="10" fill="#ff66c4" stroke="#ffd6ef" stroke-width="3" />
  <g fill="#f5f4ff" font-family="'Noto Sans JP', 'Inter', sans-serif">
    <text x="144" y="54" font-size="18" opacity="0.8">福岡空港</text>
    <text x="334" y="338" font-size="18" opacity="0.8">博多駅前ホテル</text>
  </g>
  <g fill="#9fb7ff" font-family="'Noto Sans JP', 'Inter', sans-serif" font-size="13" opacity="0.7">
    <text x="160" y="108">空港通路</text>
    <text x="260" y="168">地下連絡道</text>
    <text x="380" y="236">祇園エリア</text>
  </g>
</svg>
