<svg viewBox="0 0 100 100" xmlns="http://www.w3.org/2000/svg" role="img" aria-labelledby="title desc">
  <title id="title">福岡空港から博多駅前ホテルまでのマップ</title>
  <desc id="desc">夜の福岡の街並みを抽象的に描いた地図。空港から博多駅付近までの主要道路と川が描かれています。</desc>
  <defs>
    <linearGradient id="walk-bg" x1="0" y1="0" x2="1" y2="1">
      <stop offset="0%" stop-color="#10183a" />
      <stop offset="100%" stop-color="#0a1024" />
    </linearGradient>
    <linearGradient id="walk-glow" x1="0" y1="0" x2="1" y2="1">
      <stop offset="0%" stop-color="rgba(255, 110, 200, 0.25)" />
      <stop offset="100%" stop-color="rgba(100, 160, 255, 0.22)" />
    </linearGradient>
    <linearGradient id="walk-river" x1="0" y1="0" x2="0" y2="1">
      <stop offset="0%" stop-color="rgba(48, 86, 140, 0.9)" />
      <stop offset="100%" stop-color="rgba(20, 38, 82, 0.85)" />
    </linearGradient>
  </defs>
  <rect width="100" height="100" fill="url(#walk-bg)" />
  <rect width="100" height="100" fill="url(#walk-glow)" opacity="0.35" />
  <path d="M5 65 C18 58 28 54 35 52 C44 49 56 46 65 44 C76 42 84 42 96 44" fill="none" stroke="rgba(33, 58, 112, 0.85)" stroke-width="10" stroke-linecap="round" opacity="0.35" />
  <path d="M-5 68 C16 62 38 56 60 52 C74 49 86 50 110 54" fill="none" stroke="rgba(20, 36, 80, 0.65)" stroke-width="6" stroke-linecap="round" opacity="0.8" />
  <path d="M0 40 C16 32 28 26 44 25 C58 23 74 28 100 18 L100 40 L0 40 Z" fill="url(#walk-river)" opacity="0.85" />
  <g stroke="rgba(220, 228, 255, 0.16)" stroke-width="1.25" stroke-linecap="round" stroke-linejoin="round">
    <path d="M10 92 L92 8" />
    <path d="M3 78 L40 40" />
    <path d="M35 95 L80 45" />
    <path d="M12 14 L45 47" />
    <path d="M64 12 L94 42" />
  </g>
  <g stroke="rgba(205, 215, 255, 0.35)" stroke-width="1.8" stroke-linecap="round">
    <path d="M18 83 L36 70 L52 60 L70 52 L88 45" />
    <path d="M58 20 L72 32 L86 40" />
  </g>
  <g fill="rgba(255, 255, 255, 0.12)">
    <circle cx="20" cy="72" r="4" />
    <circle cx="60" cy="52" r="3" />
    <circle cx="86" cy="40" r="4.5" />
    <circle cx="76" cy="20" r="3.5" />
  </g>
</svg>
