<svg viewBox="0 0 100 100" xmlns="http://www.w3.org/2000/svg" role="img" aria-labelledby="title desc">
  <title id="title">羽田空港から渋谷までの鉄道マップ</title>
  <desc id="desc">東京湾沿いから都心へ向かう鉄道ルートを表現したネオン調の地図。</desc>
  <defs>
    <linearGradient id="train-bg" x1="0" y1="0" x2="1" y2="1">
      <stop offset="0%" stop-color="#1b0f2f" />
      <stop offset="100%" stop-color="#0d1736" />
    </linearGradient>
    <radialGradient id="train-light" cx="0.75" cy="0.25" r="0.6">
      <stop offset="0%" stop-color="rgba(255, 95, 200, 0.35)" />
      <stop offset="100%" stop-color="rgba(27, 15, 47, 0)" />
    </radialGradient>
    <linearGradient id="train-water" x1="0" y1="1" x2="1" y2="0">
      <stop offset="0%" stop-color="rgba(30, 54, 110, 0.9)" />
      <stop offset="100%" stop-color="rgba(14, 34, 84, 0.9)" />
    </linearGradient>
  </defs>
  <rect width="100" height="100" fill="url(#train-bg)" />
  <rect width="100" height="100" fill="url(#train-light)" opacity="0.45" />
  <path d="M-5 78 C20 60 35 52 52 46 C68 40 82 32 105 18" fill="none" stroke="rgba(28, 50, 102, 0.8)" stroke-width="12" stroke-linecap="round" opacity="0.32" />
  <path d="M-8 86 C22 66 44 54 66 44 C82 36 96 28 116 12" fill="none" stroke="rgba(18, 36, 90, 0.7)" stroke-width="7" stroke-linecap="round" opacity="0.8" />
  <path d="M-2 68 L18 60 C32 54 48 52 66 52 C80 52 96 56 110 62 L110 90 L-2 90 Z" fill="url(#train-water)" opacity="0.85" />
  <g stroke="rgba(210, 225, 255, 0.18)" stroke-width="1.15" stroke-linecap="round" stroke-linejoin="round">
    <path d="M8 12 L36 40" />
    <path d="M18 6 L80 68" />
    <path d="M38 4 L94 60" />
    <path d="M12 96 L92 12" />
  </g>
  <g stroke="rgba(125, 200, 255, 0.35)" stroke-width="2" stroke-linecap="round">
    <path d="M22 82 L38 70 L52 60 L66 54 L80 48 L90 40" />
    <path d="M54 18 L70 30 L84 40" />
  </g>
  <g fill="rgba(255, 255, 255, 0.14)">
    <circle cx="20" cy="72" r="3.5" />
    <circle cx="42" cy="60" r="3" />
    <circle cx="68" cy="48" r="3.8" />
    <circle cx="86" cy="34" r="4.2" />
  </g>
</svg>
